<mxfile host="app.diagrams.net" modified="2021-10-02T18:22:43.983Z" agent="5.0 (Windows NT 10.0; Win64; x64) AppleWebKit/537.36 (KHTML, like Gecko) Chrome/94.0.4606.61 Safari/537.36" etag="QgZED9L1wwgQWKP6rhaz" version="15.4.1" type="github">
  <diagram id="C5RBs43oDa-KdzZeNtuy" name="Page-1">
    <mxGraphModel dx="483" dy="1688" grid="1" gridSize="10" guides="1" tooltips="1" connect="1" arrows="1" fold="1" page="1" pageScale="1" pageWidth="827" pageHeight="1169" math="0" shadow="0">
      <root>
        <mxCell id="WIyWlLk6GJQsqaUBKTNV-0" />
        <mxCell id="WIyWlLk6GJQsqaUBKTNV-1" parent="WIyWlLk6GJQsqaUBKTNV-0" />
        <mxCell id="d9hjLv1WuLnABqPmbMbq-0" value="Build" style="swimlane;fontStyle=0;childLayout=stackLayout;horizontal=1;startSize=26;fillColor=none;horizontalStack=0;resizeParent=1;resizeParentMax=0;resizeLast=0;collapsible=1;marginBottom=0;" parent="WIyWlLk6GJQsqaUBKTNV-1" vertex="1">
          <mxGeometry x="80" y="-140" width="140" height="160" as="geometry">
            <mxRectangle x="200" y="-570" width="60" height="26" as="alternateBounds" />
          </mxGeometry>
        </mxCell>
        <mxCell id="d9hjLv1WuLnABqPmbMbq-1" value="+ quantityOfWindows: Int" style="text;strokeColor=none;fillColor=none;align=left;verticalAlign=top;spacingLeft=4;spacingRight=4;overflow=hidden;rotatable=0;points=[[0,0.5],[1,0.5]];portConstraint=eastwest;" parent="d9hjLv1WuLnABqPmbMbq-0" vertex="1">
          <mxGeometry y="26" width="140" height="26" as="geometry" />
        </mxCell>
        <mxCell id="d9hjLv1WuLnABqPmbMbq-2" value="qOfWalls: Int" style="text;strokeColor=none;fillColor=none;align=left;verticalAlign=top;spacingLeft=4;spacingRight=4;overflow=hidden;rotatable=0;points=[[0,0.5],[1,0.5]];portConstraint=eastwest;" parent="d9hjLv1WuLnABqPmbMbq-0" vertex="1">
          <mxGeometry y="52" width="140" height="26" as="geometry" />
        </mxCell>
        <mxCell id="d9hjLv1WuLnABqPmbMbq-3" value="street: String&#xa;isBulding: Bool&#xa;ruinBuild()&#xa;addFloor()&#xa;fixLift()" style="text;strokeColor=none;fillColor=none;align=left;verticalAlign=top;spacingLeft=4;spacingRight=4;overflow=hidden;rotatable=0;points=[[0,0.5],[1,0.5]];portConstraint=eastwest;" parent="d9hjLv1WuLnABqPmbMbq-0" vertex="1">
          <mxGeometry y="78" width="140" height="82" as="geometry" />
        </mxCell>
        <mxCell id="d9hjLv1WuLnABqPmbMbq-6" value="Program" style="swimlane;fontStyle=0;childLayout=stackLayout;horizontal=1;startSize=26;fillColor=none;horizontalStack=0;resizeParent=1;resizeParentMax=0;resizeLast=0;collapsible=1;marginBottom=0;" parent="WIyWlLk6GJQsqaUBKTNV-1" vertex="1">
          <mxGeometry x="260" y="-140" width="140" height="160" as="geometry" />
        </mxCell>
        <mxCell id="d9hjLv1WuLnABqPmbMbq-7" value="storage: Float" style="text;strokeColor=none;fillColor=none;align=left;verticalAlign=top;spacingLeft=4;spacingRight=4;overflow=hidden;rotatable=0;points=[[0,0.5],[1,0.5]];portConstraint=eastwest;" parent="d9hjLv1WuLnABqPmbMbq-6" vertex="1">
          <mxGeometry y="26" width="140" height="26" as="geometry" />
        </mxCell>
        <mxCell id="d9hjLv1WuLnABqPmbMbq-8" value="mobility: Bool" style="text;strokeColor=none;fillColor=none;align=left;verticalAlign=top;spacingLeft=4;spacingRight=4;overflow=hidden;rotatable=0;points=[[0,0.5],[1,0.5]];portConstraint=eastwest;" parent="d9hjLv1WuLnABqPmbMbq-6" vertex="1">
          <mxGeometry y="52" width="140" height="26" as="geometry" />
        </mxCell>
        <mxCell id="d9hjLv1WuLnABqPmbMbq-9" value="crossPlatform: String&#xa;isGame: Bool&#xa;printAuthors()&#xa;printStorage()&#xa;giveFeedback()" style="text;strokeColor=none;fillColor=none;align=left;verticalAlign=top;spacingLeft=4;spacingRight=4;overflow=hidden;rotatable=0;points=[[0,0.5],[1,0.5]];portConstraint=eastwest;" parent="d9hjLv1WuLnABqPmbMbq-6" vertex="1">
          <mxGeometry y="78" width="140" height="82" as="geometry" />
        </mxCell>
        <mxCell id="d9hjLv1WuLnABqPmbMbq-10" value="Film" style="swimlane;fontStyle=0;childLayout=stackLayout;horizontal=1;startSize=26;fillColor=none;horizontalStack=0;resizeParent=1;resizeParentMax=0;resizeLast=0;collapsible=1;marginBottom=0;" parent="WIyWlLk6GJQsqaUBKTNV-1" vertex="1">
          <mxGeometry x="460" y="-140" width="140" height="160" as="geometry" />
        </mxCell>
        <mxCell id="d9hjLv1WuLnABqPmbMbq-11" value="rating: Float" style="text;strokeColor=none;fillColor=none;align=left;verticalAlign=top;spacingLeft=4;spacingRight=4;overflow=hidden;rotatable=0;points=[[0,0.5],[1,0.5]];portConstraint=eastwest;" parent="d9hjLv1WuLnABqPmbMbq-10" vertex="1">
          <mxGeometry y="26" width="140" height="26" as="geometry" />
        </mxCell>
        <mxCell id="d9hjLv1WuLnABqPmbMbq-12" value="director: String" style="text;strokeColor=none;fillColor=none;align=left;verticalAlign=top;spacingLeft=4;spacingRight=4;overflow=hidden;rotatable=0;points=[[0,0.5],[1,0.5]];portConstraint=eastwest;" parent="d9hjLv1WuLnABqPmbMbq-10" vertex="1">
          <mxGeometry y="52" width="140" height="26" as="geometry" />
        </mxCell>
        <mxCell id="d9hjLv1WuLnABqPmbMbq-13" value="mainActor: String&#xa;rate()&#xa;watch()&#xa;seeFeedback()&#xa;addToFavourites()" style="text;strokeColor=none;fillColor=none;align=left;verticalAlign=top;spacingLeft=4;spacingRight=4;overflow=hidden;rotatable=0;points=[[0,0.5],[1,0.5]];portConstraint=eastwest;" parent="d9hjLv1WuLnABqPmbMbq-10" vertex="1">
          <mxGeometry y="78" width="140" height="82" as="geometry" />
        </mxCell>
        <mxCell id="d9hjLv1WuLnABqPmbMbq-14" value="Device" style="swimlane;fontStyle=0;childLayout=stackLayout;horizontal=1;startSize=26;fillColor=none;horizontalStack=0;resizeParent=1;resizeParentMax=0;resizeLast=0;collapsible=1;marginBottom=0;" parent="WIyWlLk6GJQsqaUBKTNV-1" vertex="1">
          <mxGeometry x="180" y="70" width="140" height="200" as="geometry" />
        </mxCell>
        <mxCell id="d9hjLv1WuLnABqPmbMbq-15" value="destiny: String" style="text;strokeColor=none;fillColor=none;align=left;verticalAlign=top;spacingLeft=4;spacingRight=4;overflow=hidden;rotatable=0;points=[[0,0.5],[1,0.5]];portConstraint=eastwest;" parent="d9hjLv1WuLnABqPmbMbq-14" vertex="1">
          <mxGeometry y="26" width="140" height="26" as="geometry" />
        </mxCell>
        <mxCell id="d9hjLv1WuLnABqPmbMbq-16" value="isUseful: Bool" style="text;strokeColor=none;fillColor=none;align=left;verticalAlign=top;spacingLeft=4;spacingRight=4;overflow=hidden;rotatable=0;points=[[0,0.5],[1,0.5]];portConstraint=eastwest;" parent="d9hjLv1WuLnABqPmbMbq-14" vertex="1">
          <mxGeometry y="52" width="140" height="26" as="geometry" />
        </mxCell>
        <mxCell id="d9hjLv1WuLnABqPmbMbq-17" value="weight: Float&#xa;color: String&#xa;price: Float&#xa;clean()&#xa;update()&#xa;close()&#xa;turnOff()" style="text;strokeColor=none;fillColor=none;align=left;verticalAlign=top;spacingLeft=4;spacingRight=4;overflow=hidden;rotatable=0;points=[[0,0.5],[1,0.5]];portConstraint=eastwest;" parent="d9hjLv1WuLnABqPmbMbq-14" vertex="1">
          <mxGeometry y="78" width="140" height="122" as="geometry" />
        </mxCell>
        <mxCell id="d9hjLv1WuLnABqPmbMbq-18" value="Human" style="swimlane;fontStyle=0;childLayout=stackLayout;horizontal=1;startSize=26;fillColor=none;horizontalStack=0;resizeParent=1;resizeParentMax=0;resizeLast=0;collapsible=1;marginBottom=0;" parent="WIyWlLk6GJQsqaUBKTNV-1" vertex="1">
          <mxGeometry x="410" y="70" width="140" height="200" as="geometry" />
        </mxCell>
        <mxCell id="d9hjLv1WuLnABqPmbMbq-19" value="gender: String" style="text;strokeColor=none;fillColor=none;align=left;verticalAlign=top;spacingLeft=4;spacingRight=4;overflow=hidden;rotatable=0;points=[[0,0.5],[1,0.5]];portConstraint=eastwest;" parent="d9hjLv1WuLnABqPmbMbq-18" vertex="1">
          <mxGeometry y="26" width="140" height="26" as="geometry" />
        </mxCell>
        <mxCell id="d9hjLv1WuLnABqPmbMbq-20" value="isAlive: Bool" style="text;strokeColor=none;fillColor=none;align=left;verticalAlign=top;spacingLeft=4;spacingRight=4;overflow=hidden;rotatable=0;points=[[0,0.5],[1,0.5]];portConstraint=eastwest;" parent="d9hjLv1WuLnABqPmbMbq-18" vertex="1">
          <mxGeometry y="52" width="140" height="26" as="geometry" />
        </mxCell>
        <mxCell id="d9hjLv1WuLnABqPmbMbq-21" value="isFamous: Bool&#xa;quantityOfFriends: Int&#xa;weight: Float&#xa;high: Float&#xa;dressUp()&#xa;goToDoctor()&#xa;tellAJoke()" style="text;strokeColor=none;fillColor=none;align=left;verticalAlign=top;spacingLeft=4;spacingRight=4;overflow=hidden;rotatable=0;points=[[0,0.5],[1,0.5]];portConstraint=eastwest;" parent="d9hjLv1WuLnABqPmbMbq-18" vertex="1">
          <mxGeometry y="78" width="140" height="122" as="geometry" />
        </mxCell>
        <mxCell id="I-5xlqZzlYs9I6MVpBO2-0" value="Figurine" style="swimlane;fontStyle=0;childLayout=stackLayout;horizontal=1;startSize=26;fillColor=none;horizontalStack=0;resizeParent=1;resizeParentMax=0;resizeLast=0;collapsible=1;marginBottom=0;" vertex="1" parent="WIyWlLk6GJQsqaUBKTNV-1">
          <mxGeometry x="90" y="-1120" width="140" height="140" as="geometry" />
        </mxCell>
        <mxCell id="I-5xlqZzlYs9I6MVpBO2-4" value="material: String&lt;br&gt;size: (Float, Float)&lt;br&gt;isColoured: Bool&lt;br&gt;placeOfStanding: String&lt;br&gt;brokeUp()&lt;br&gt;changePlace()&lt;br&gt;sell()" style="text;html=1;strokeColor=none;fillColor=none;align=left;verticalAlign=middle;whiteSpace=wrap;rounded=0;" vertex="1" parent="I-5xlqZzlYs9I6MVpBO2-0">
          <mxGeometry y="26" width="140" height="114" as="geometry" />
        </mxCell>
        <mxCell id="I-5xlqZzlYs9I6MVpBO2-5" value="Camel: Figurine" style="swimlane;fontStyle=0;childLayout=stackLayout;horizontal=1;startSize=26;fillColor=none;horizontalStack=0;resizeParent=1;resizeParentMax=0;resizeLast=0;collapsible=1;marginBottom=0;align=center;" vertex="1" parent="WIyWlLk6GJQsqaUBKTNV-1">
          <mxGeometry x="260" y="-1130" width="140" height="160" as="geometry" />
        </mxCell>
        <mxCell id="I-5xlqZzlYs9I6MVpBO2-6" value="material: String&#xa;size: (Float, Float)&#xa;isColoured: Bool&#xa;placeOfStanding: String&#xa;quantiyOfHumps: Int&#xa;brokeUp()&#xa;changePlace()&#xa;sell()&#xa;cleanUp()" style="text;strokeColor=none;fillColor=none;align=left;verticalAlign=top;spacingLeft=4;spacingRight=4;overflow=hidden;rotatable=0;points=[[0,0.5],[1,0.5]];portConstraint=eastwest;" vertex="1" parent="I-5xlqZzlYs9I6MVpBO2-5">
          <mxGeometry y="26" width="140" height="134" as="geometry" />
        </mxCell>
        <mxCell id="I-5xlqZzlYs9I6MVpBO2-9" value="Doll: Figurine" style="swimlane;fontStyle=0;childLayout=stackLayout;horizontal=1;startSize=26;fillColor=none;horizontalStack=0;resizeParent=1;resizeParentMax=0;resizeLast=0;collapsible=1;marginBottom=0;align=center;" vertex="1" parent="WIyWlLk6GJQsqaUBKTNV-1">
          <mxGeometry x="414" y="-1150" width="140" height="200" as="geometry" />
        </mxCell>
        <mxCell id="I-5xlqZzlYs9I6MVpBO2-10" value="material: String&#xa;size: (Float, Float)&#xa;isColoured: Bool&#xa;placeOfStanding: String&#xa;name: String&#xa;eyeColor: String&#xa;brokeUp()&#xa;changePlace()&#xa;sell()&#xa;play()&#xa;brushHair()" style="text;strokeColor=none;fillColor=none;align=left;verticalAlign=top;spacingLeft=4;spacingRight=4;overflow=hidden;rotatable=0;points=[[0,0.5],[1,0.5]];portConstraint=eastwest;" vertex="1" parent="I-5xlqZzlYs9I6MVpBO2-9">
          <mxGeometry y="26" width="140" height="174" as="geometry" />
        </mxCell>
        <mxCell id="I-5xlqZzlYs9I6MVpBO2-14" value="Student" style="swimlane;fontStyle=0;childLayout=stackLayout;horizontal=1;startSize=26;fillColor=none;horizontalStack=0;resizeParent=1;resizeParentMax=0;resizeLast=0;collapsible=1;marginBottom=0;align=center;" vertex="1" parent="WIyWlLk6GJQsqaUBKTNV-1">
          <mxGeometry x="90" y="-930" width="140" height="130" as="geometry" />
        </mxCell>
        <mxCell id="I-5xlqZzlYs9I6MVpBO2-15" value="name: String" style="text;strokeColor=none;fillColor=none;align=left;verticalAlign=top;spacingLeft=4;spacingRight=4;overflow=hidden;rotatable=0;points=[[0,0.5],[1,0.5]];portConstraint=eastwest;" vertex="1" parent="I-5xlqZzlYs9I6MVpBO2-14">
          <mxGeometry y="26" width="140" height="26" as="geometry" />
        </mxCell>
        <mxCell id="I-5xlqZzlYs9I6MVpBO2-16" value="age: Int" style="text;strokeColor=none;fillColor=none;align=left;verticalAlign=top;spacingLeft=4;spacingRight=4;overflow=hidden;rotatable=0;points=[[0,0.5],[1,0.5]];portConstraint=eastwest;" vertex="1" parent="I-5xlqZzlYs9I6MVpBO2-14">
          <mxGeometry y="52" width="140" height="26" as="geometry" />
        </mxCell>
        <mxCell id="I-5xlqZzlYs9I6MVpBO2-17" value="fieldOfSudy: String&#xa;doHomework()&#xa;missLessons()" style="text;strokeColor=none;fillColor=none;align=left;verticalAlign=top;spacingLeft=4;spacingRight=4;overflow=hidden;rotatable=0;points=[[0,0.5],[1,0.5]];portConstraint=eastwest;" vertex="1" parent="I-5xlqZzlYs9I6MVpBO2-14">
          <mxGeometry y="78" width="140" height="52" as="geometry" />
        </mxCell>
        <mxCell id="I-5xlqZzlYs9I6MVpBO2-18" value="Freshman: Student" style="swimlane;fontStyle=0;childLayout=stackLayout;horizontal=1;startSize=26;fillColor=none;horizontalStack=0;resizeParent=1;resizeParentMax=0;resizeLast=0;collapsible=1;marginBottom=0;align=center;" vertex="1" parent="WIyWlLk6GJQsqaUBKTNV-1">
          <mxGeometry x="260" y="-930" width="140" height="150" as="geometry" />
        </mxCell>
        <mxCell id="I-5xlqZzlYs9I6MVpBO2-19" value="name: String&#xa;age: Int&#xa;fieldOfSudy: String&#xa;rating: Float&#xa;doHomework()&#xa;missLessons()&#xa;makeFriends()&#xa;learnTeachersName()" style="text;strokeColor=none;fillColor=none;align=left;verticalAlign=top;spacingLeft=4;spacingRight=4;overflow=hidden;rotatable=0;points=[[0,0.5],[1,0.5]];portConstraint=eastwest;" vertex="1" parent="I-5xlqZzlYs9I6MVpBO2-18">
          <mxGeometry y="26" width="140" height="124" as="geometry" />
        </mxCell>
        <mxCell id="I-5xlqZzlYs9I6MVpBO2-22" value="Graduate: Student" style="swimlane;fontStyle=0;childLayout=stackLayout;horizontal=1;startSize=26;fillColor=none;horizontalStack=0;resizeParent=1;resizeParentMax=0;resizeLast=0;collapsible=1;marginBottom=0;align=center;" vertex="1" parent="WIyWlLk6GJQsqaUBKTNV-1">
          <mxGeometry x="420" y="-930" width="170" height="150" as="geometry" />
        </mxCell>
        <mxCell id="I-5xlqZzlYs9I6MVpBO2-23" value="name: String&#xa;age: Int&#xa;fieldOfSudy: String&#xa;rating: Float&#xa;isGoldenMedalReceiver:Bool&#xa;doHomework()&#xa;missLessons()&#xa;chooseCeremonialCostume()&#xa;" style="text;strokeColor=none;fillColor=none;align=left;verticalAlign=top;spacingLeft=4;spacingRight=4;overflow=hidden;rotatable=0;points=[[0,0.5],[1,0.5]];portConstraint=eastwest;" vertex="1" parent="I-5xlqZzlYs9I6MVpBO2-22">
          <mxGeometry y="26" width="170" height="124" as="geometry" />
        </mxCell>
        <mxCell id="I-5xlqZzlYs9I6MVpBO2-26" value="Button" style="swimlane;fontStyle=0;childLayout=stackLayout;horizontal=1;startSize=26;fillColor=none;horizontalStack=0;resizeParent=1;resizeParentMax=0;resizeLast=0;collapsible=1;marginBottom=0;align=center;" vertex="1" parent="WIyWlLk6GJQsqaUBKTNV-1">
          <mxGeometry x="90" y="-750" width="140" height="140" as="geometry" />
        </mxCell>
        <mxCell id="I-5xlqZzlYs9I6MVpBO2-27" value="shape: String" style="text;strokeColor=none;fillColor=none;align=left;verticalAlign=top;spacingLeft=4;spacingRight=4;overflow=hidden;rotatable=0;points=[[0,0.5],[1,0.5]];portConstraint=eastwest;" vertex="1" parent="I-5xlqZzlYs9I6MVpBO2-26">
          <mxGeometry y="26" width="140" height="26" as="geometry" />
        </mxCell>
        <mxCell id="I-5xlqZzlYs9I6MVpBO2-28" value="name: String" style="text;strokeColor=none;fillColor=none;align=left;verticalAlign=top;spacingLeft=4;spacingRight=4;overflow=hidden;rotatable=0;points=[[0,0.5],[1,0.5]];portConstraint=eastwest;" vertex="1" parent="I-5xlqZzlYs9I6MVpBO2-26">
          <mxGeometry y="52" width="140" height="26" as="geometry" />
        </mxCell>
        <mxCell id="I-5xlqZzlYs9I6MVpBO2-29" value="isUseful: Bool&#xa;click()&#xa;remove()&#xa;turnOnBacklight()" style="text;strokeColor=none;fillColor=none;align=left;verticalAlign=top;spacingLeft=4;spacingRight=4;overflow=hidden;rotatable=0;points=[[0,0.5],[1,0.5]];portConstraint=eastwest;" vertex="1" parent="I-5xlqZzlYs9I6MVpBO2-26">
          <mxGeometry y="78" width="140" height="62" as="geometry" />
        </mxCell>
        <mxCell id="I-5xlqZzlYs9I6MVpBO2-30" value="Delete: Button" style="swimlane;fontStyle=0;childLayout=stackLayout;horizontal=1;startSize=26;fillColor=none;horizontalStack=0;resizeParent=1;resizeParentMax=0;resizeLast=0;collapsible=1;marginBottom=0;align=center;" vertex="1" parent="WIyWlLk6GJQsqaUBKTNV-1">
          <mxGeometry x="260" y="-750" width="150" height="160" as="geometry" />
        </mxCell>
        <mxCell id="I-5xlqZzlYs9I6MVpBO2-31" value="shape: String&#xa;name: String&#xa;isUseful: Bool&#xa;click()&#xa;remove()&#xa;turnOnBacklight()&#xa;doDelete()&#xa;doDeleteWithoutReturn()" style="text;strokeColor=none;fillColor=none;align=left;verticalAlign=top;spacingLeft=4;spacingRight=4;overflow=hidden;rotatable=0;points=[[0,0.5],[1,0.5]];portConstraint=eastwest;" vertex="1" parent="I-5xlqZzlYs9I6MVpBO2-30">
          <mxGeometry y="26" width="150" height="134" as="geometry" />
        </mxCell>
        <mxCell id="I-5xlqZzlYs9I6MVpBO2-34" value="TurnOn: Button" style="swimlane;fontStyle=0;childLayout=stackLayout;horizontal=1;startSize=26;fillColor=none;horizontalStack=0;resizeParent=1;resizeParentMax=0;resizeLast=0;collapsible=1;marginBottom=0;align=center;" vertex="1" parent="WIyWlLk6GJQsqaUBKTNV-1">
          <mxGeometry x="430" y="-750" width="140" height="160" as="geometry" />
        </mxCell>
        <mxCell id="I-5xlqZzlYs9I6MVpBO2-35" value="shape: String&#xa;name: String&#xa;isUseful: Bool&#xa;click()&#xa;remove()&#xa;turnOnBacklight()&#xa;doTurnOn()&#xa;doRestart()" style="text;strokeColor=none;fillColor=none;align=left;verticalAlign=top;spacingLeft=4;spacingRight=4;overflow=hidden;rotatable=0;points=[[0,0.5],[1,0.5]];portConstraint=eastwest;" vertex="1" parent="I-5xlqZzlYs9I6MVpBO2-34">
          <mxGeometry y="26" width="140" height="134" as="geometry" />
        </mxCell>
        <mxCell id="I-5xlqZzlYs9I6MVpBO2-38" value="Clothes" style="swimlane;fontStyle=0;childLayout=stackLayout;horizontal=1;startSize=26;fillColor=none;horizontalStack=0;resizeParent=1;resizeParentMax=0;resizeLast=0;collapsible=1;marginBottom=0;align=center;" vertex="1" parent="WIyWlLk6GJQsqaUBKTNV-1">
          <mxGeometry x="90" y="-570" width="140" height="160" as="geometry" />
        </mxCell>
        <mxCell id="I-5xlqZzlYs9I6MVpBO2-39" value="material: String" style="text;strokeColor=none;fillColor=none;align=left;verticalAlign=top;spacingLeft=4;spacingRight=4;overflow=hidden;rotatable=0;points=[[0,0.5],[1,0.5]];portConstraint=eastwest;" vertex="1" parent="I-5xlqZzlYs9I6MVpBO2-38">
          <mxGeometry y="26" width="140" height="26" as="geometry" />
        </mxCell>
        <mxCell id="I-5xlqZzlYs9I6MVpBO2-40" value="color: String" style="text;strokeColor=none;fillColor=none;align=left;verticalAlign=top;spacingLeft=4;spacingRight=4;overflow=hidden;rotatable=0;points=[[0,0.5],[1,0.5]];portConstraint=eastwest;" vertex="1" parent="I-5xlqZzlYs9I6MVpBO2-38">
          <mxGeometry y="52" width="140" height="26" as="geometry" />
        </mxCell>
        <mxCell id="I-5xlqZzlYs9I6MVpBO2-41" value="isWithSleeve: Bool&#xa;isWithPrint: Bool&#xa;putOn()&#xa;putOff()" style="text;strokeColor=none;fillColor=none;align=left;verticalAlign=top;spacingLeft=4;spacingRight=4;overflow=hidden;rotatable=0;points=[[0,0.5],[1,0.5]];portConstraint=eastwest;" vertex="1" parent="I-5xlqZzlYs9I6MVpBO2-38">
          <mxGeometry y="78" width="140" height="82" as="geometry" />
        </mxCell>
        <mxCell id="I-5xlqZzlYs9I6MVpBO2-42" value="TShirt: Clothes" style="swimlane;fontStyle=0;childLayout=stackLayout;horizontal=1;startSize=26;fillColor=none;horizontalStack=0;resizeParent=1;resizeParentMax=0;resizeLast=0;collapsible=1;marginBottom=0;align=center;" vertex="1" parent="WIyWlLk6GJQsqaUBKTNV-1">
          <mxGeometry x="260" y="-570" width="140" height="170" as="geometry" />
        </mxCell>
        <mxCell id="I-5xlqZzlYs9I6MVpBO2-43" value="material: String&#xa;color: String&#xa;isWithSleeve: Bool&#xa;isWithPrint: Bool&#xa;lengthOfSleeves: Float&#xa;putOn()&#xa;putOff()" style="text;strokeColor=none;fillColor=none;align=left;verticalAlign=top;spacingLeft=4;spacingRight=4;overflow=hidden;rotatable=0;points=[[0,0.5],[1,0.5]];portConstraint=eastwest;" vertex="1" parent="I-5xlqZzlYs9I6MVpBO2-42">
          <mxGeometry y="26" width="140" height="144" as="geometry" />
        </mxCell>
        <mxCell id="I-5xlqZzlYs9I6MVpBO2-46" value="Trousers: Clothes" style="swimlane;fontStyle=0;childLayout=stackLayout;horizontal=1;startSize=26;fillColor=none;horizontalStack=0;resizeParent=1;resizeParentMax=0;resizeLast=0;collapsible=1;marginBottom=0;align=center;" vertex="1" parent="WIyWlLk6GJQsqaUBKTNV-1">
          <mxGeometry x="430" y="-570" width="140" height="170" as="geometry" />
        </mxCell>
        <mxCell id="I-5xlqZzlYs9I6MVpBO2-47" value="material: String&#xa;color: String&#xa;isWithSleeve: Bool&#xa;isWithPrint: Bool&#xa;lengthOfOvershoe: Float&#xa;waistLength: Float&#xa;putOn()&#xa;putOff()" style="text;strokeColor=none;fillColor=none;align=left;verticalAlign=top;spacingLeft=4;spacingRight=4;overflow=hidden;rotatable=0;points=[[0,0.5],[1,0.5]];portConstraint=eastwest;" vertex="1" parent="I-5xlqZzlYs9I6MVpBO2-46">
          <mxGeometry y="26" width="140" height="144" as="geometry" />
        </mxCell>
        <mxCell id="I-5xlqZzlYs9I6MVpBO2-50" value="Cake" style="swimlane;fontStyle=0;childLayout=stackLayout;horizontal=1;startSize=26;fillColor=none;horizontalStack=0;resizeParent=1;resizeParentMax=0;resizeLast=0;collapsible=1;marginBottom=0;align=center;" vertex="1" parent="WIyWlLk6GJQsqaUBKTNV-1">
          <mxGeometry x="90" y="-360" width="140" height="140" as="geometry" />
        </mxCell>
        <mxCell id="I-5xlqZzlYs9I6MVpBO2-51" value="weight: Float" style="text;strokeColor=none;fillColor=none;align=left;verticalAlign=top;spacingLeft=4;spacingRight=4;overflow=hidden;rotatable=0;points=[[0,0.5],[1,0.5]];portConstraint=eastwest;" vertex="1" parent="I-5xlqZzlYs9I6MVpBO2-50">
          <mxGeometry y="26" width="140" height="26" as="geometry" />
        </mxCell>
        <mxCell id="I-5xlqZzlYs9I6MVpBO2-52" value="taste: String" style="text;strokeColor=none;fillColor=none;align=left;verticalAlign=top;spacingLeft=4;spacingRight=4;overflow=hidden;rotatable=0;points=[[0,0.5],[1,0.5]];portConstraint=eastwest;" vertex="1" parent="I-5xlqZzlYs9I6MVpBO2-50">
          <mxGeometry y="52" width="140" height="26" as="geometry" />
        </mxCell>
        <mxCell id="I-5xlqZzlYs9I6MVpBO2-53" value="cost: Float&#xa;sell()&#xa;eat()&#xa;buy()" style="text;strokeColor=none;fillColor=none;align=left;verticalAlign=top;spacingLeft=4;spacingRight=4;overflow=hidden;rotatable=0;points=[[0,0.5],[1,0.5]];portConstraint=eastwest;" vertex="1" parent="I-5xlqZzlYs9I6MVpBO2-50">
          <mxGeometry y="78" width="140" height="62" as="geometry" />
        </mxCell>
        <mxCell id="I-5xlqZzlYs9I6MVpBO2-54" value="Cheesecake: Cake" style="swimlane;fontStyle=0;childLayout=stackLayout;horizontal=1;startSize=26;fillColor=none;horizontalStack=0;resizeParent=1;resizeParentMax=0;resizeLast=0;collapsible=1;marginBottom=0;align=center;" vertex="1" parent="WIyWlLk6GJQsqaUBKTNV-1">
          <mxGeometry x="260" y="-380" width="140" height="170" as="geometry" />
        </mxCell>
        <mxCell id="I-5xlqZzlYs9I6MVpBO2-55" value="weight: Float&#xa;taste: String&#xa;cost: Float&#xa;containsOf: String&#xa;sell()&#xa;eat()&#xa;buy()&#xa;freeze()&#xa;changeBase()" style="text;strokeColor=none;fillColor=none;align=left;verticalAlign=top;spacingLeft=4;spacingRight=4;overflow=hidden;rotatable=0;points=[[0,0.5],[1,0.5]];portConstraint=eastwest;" vertex="1" parent="I-5xlqZzlYs9I6MVpBO2-54">
          <mxGeometry y="26" width="140" height="144" as="geometry" />
        </mxCell>
        <mxCell id="I-5xlqZzlYs9I6MVpBO2-58" value="Biscuit: Cake" style="swimlane;fontStyle=0;childLayout=stackLayout;horizontal=1;startSize=26;fillColor=none;horizontalStack=0;resizeParent=1;resizeParentMax=0;resizeLast=0;collapsible=1;marginBottom=0;align=center;" vertex="1" parent="WIyWlLk6GJQsqaUBKTNV-1">
          <mxGeometry x="430" y="-380" width="140" height="170" as="geometry" />
        </mxCell>
        <mxCell id="I-5xlqZzlYs9I6MVpBO2-59" value="weight: Float&#xa;taste: String&#xa;cost: Float&#xa;containsOf: String&#xa;isChocolate: Bool&#xa;sell()&#xa;eat()&#xa;buy()&#xa;cut()&#xa;" style="text;strokeColor=none;fillColor=none;align=left;verticalAlign=top;spacingLeft=4;spacingRight=4;overflow=hidden;rotatable=0;points=[[0,0.5],[1,0.5]];portConstraint=eastwest;" vertex="1" parent="I-5xlqZzlYs9I6MVpBO2-58">
          <mxGeometry y="26" width="140" height="144" as="geometry" />
        </mxCell>
      </root>
    </mxGraphModel>
  </diagram>
</mxfile>
